<?xml version="1.0" encoding="UTF-8"?>
<svg xmlns="http://www.w3.org/2000/svg" version="1.1" xmlns:xlink="http://www.w3.org/1999/xlink" viewBox="0 0 693 237">
  <!-- Generator: Adobe Illustrator 29.6.1, SVG Export Plug-In . SVG Version: 2.1.1 Build 9)  -->
  <defs>
    <style>
      .st0 {
        filter: url(#outer-glow-2);
      }

      .st1, .st2 {
        fill: #fff;
      }

      .st2 {
        stroke: #000;
        stroke-miterlimit: 10;
      }

      .st3 {
        fill: #008dd0;
      }

      .st4 {
        filter: url(#outer-glow-1);
      }

      .st5 {
        stroke-width: 1.1px;
      }

      .st5, .st6 {
        fill: #29cbe2;
        stroke: #008dd0;
        stroke-linecap: round;
        stroke-linejoin: round;
      }

      .st7 {
        display: none;
      }

      .st6 {
        stroke-width: 10px;
      }

      .st8 {
        font-family: Montserrat-Bold, Montserrat;
        font-size: 96.12px;
        font-weight: 700;
      }

      .st9 {
        fill: #002e42;
      }
    </style>
    <filter id="outer-glow-1" x="-11" y="6" width="249" height="244" filterUnits="userSpaceOnUse">
      <feOffset dx="0" dy="0"/>
      <feGaussianBlur result="blur" stdDeviation="10"/>
      <feFlood flood-color="#43ceff" flood-opacity="1"/>
      <feComposite in2="blur" operator="in"/>
      <feComposite in="SourceGraphic"/>
    </filter>
    <filter id="outer-glow-2" x="561.7" y="5.7" width="29" height="28" filterUnits="userSpaceOnUse">
      <feOffset dx="0" dy="0"/>
      <feGaussianBlur result="blur1" stdDeviation="1.1"/>
      <feFlood flood-color="#43ceff" flood-opacity="1"/>
      <feComposite in2="blur1" operator="in"/>
      <feComposite in="SourceGraphic"/>
    </filter>
  </defs>
  <g id="Layer_1" class="st7">
    <g>
      <g>
        <path class="st1" d="M280.72,275.6c-3.81,0-7.47-1.4-10.31-3.94l-97.35-87.12c-3.53-3.16-5.4-7.68-5.13-12.4l7.41-130.43c.27-4.73,2.64-9,6.5-11.74l106.6-75.52c2.63-1.86,5.72-2.85,8.94-2.85,1.45,0,2.9.2,4.29.61l125.51,36.25c4.55,1.31,8.19,4.58,10,8.95l49.91,120.73c1.81,4.37,1.53,9.26-.76,13.4l-63.27,114.29c-2.29,4.14-6.28,6.97-10.95,7.76l-128.81,21.79c-.85.14-1.72.22-2.58.22Z"/>
        <path d="M297.39-47.9c1.4,0,2.8.2,4.15.59l125.51,36.25c4.4,1.27,7.93,4.43,9.68,8.66l49.91,120.73c1.75,4.23,1.48,8.96-.74,12.96l-63.27,114.29c-2.22,4.01-6.08,6.74-10.6,7.51l-128.81,21.79c-.82.14-1.66.21-2.5.21-3.69,0-7.23-1.35-9.98-3.81l-97.35-87.12c-3.41-3.05-5.22-7.43-4.96-12l7.41-130.43c.26-4.57,2.55-8.71,6.29-11.36l106.6-75.52c2.54-1.8,5.54-2.75,8.65-2.75M297.39-48.9c-3.27,0-6.5,1.01-9.23,2.94L181.56,29.56c-3.96,2.81-6.43,7.27-6.71,12.12l-7.41,130.43c-.28,4.85,1.67,9.56,5.29,12.8l97.35,87.12c2.95,2.64,6.75,4.07,10.65,4.07.89,0,1.78-.07,2.66-.22l128.81-21.79c4.79-.81,8.95-3.76,11.3-8.01l63.27-114.29c2.35-4.25,2.64-9.34.79-13.83L437.65-2.78c-1.86-4.49-5.66-7.89-10.32-9.24l-125.51-36.25c-1.46-.42-2.95-.63-4.43-.63h0Z"/>
      </g>
      <polygon class="st2" points="167.44 172.11 23.5 235.61 23.5 -63.5 181.56 29.56 167.44 172.11"/>
      <polyline class="st2" points="270.08 272.03 226.5 416.5 23.5 235.61"/>
      <polyline class="st2" points="423.5 246.07 504.5 380.5 226.5 416.5"/>
      <polyline class="st2" points="488.75 124.68 662.68 124.68 504.5 380.5"/>
      <polyline class="st2" points="427.32 -12.02 543.5 -131.5 662.68 124.68"/>
      <polyline class="st2" points="301.81 -48.27 270.08 -208.29 543.5 -131.5"/>
      <line class="st2" x1="23.5" y1="-63.5" x2="270.08" y2="-208.29"/>
    </g>
  </g>
  <g id="Layer_2">
    <g>
      <g class="st4">
        <path class="st6" d="M202.33,133.75c-.31.48-.6.78-.93,1.23-7.94,10.75-13.85,22.64-20.56,34.19-1.95,3.35-3.64,5.48-5.54,8.86-4.94,8.82-10.93,17.54-15.87,26.36-13.51,1.16-27.19,3.22-40.6,5.2-12.45,1.84-24.69,3.88-37.23,4.84-18.47-17.23-36.17-33.41-55.36-49.83.81-27.63-3.24-55.01-.28-82.49,4.49-3.71,8.66-5.79,13.77-8.58,5.48-2.99,10.93-6.04,16.36-9.14,12.7-7.26,25.09-14.75,37.49-22.51,25.44,6.78,50.66,13.59,76.05,20.57,5.82,13.15,11.65,26.29,17.48,39.44,1.23,2.78,2.47,5.57,3.78,8.32,3.79,7.91,8.41,15.3,11.45,23.53Z"/>
        <path class="st6" d="M94.42,42.48c3.14,15.15,5.79,30.4,7.93,45.73"/>
        <path class="st6" d="M28.3,83.2c11.89,9.15,24.52,17.33,37.73,24.45"/>
        <path class="st6" d="M66.1,147.37c-12.51,4.37-24.57,10.04-35.92,16.89"/>
        <path class="st6" d="M95.1,175.71c-4.11,12.97-8.59,25.82-13.43,38.54"/>
        <path class="st6" d="M136.58,167.57c5.99,12.34,12.55,24.42,19.63,36.17"/>
        <path class="st6" d="M200.91,133.33c-16.39-.57-30.92-.06-47.26,1.43"/>
        <path class="st6" d="M169.81,63.26c-10.73,11.83-21.46,23.66-32.2,35.49-11.22-4.18-22.66-7.29-34.22-10.43-3.21-.87-6.04,1.52-8.97,3.08-9.79,5.21-19.32,10.9-28.54,17.06-.53,13.12.36,26.81,1.8,39.86,2.35,2.65,4.84,4.9,7.19,7.55,6.45,7.27,13.08,14.69,21.6,19.36,13.16-3.39,26.89-5.95,40.28-8.26,3.88-11.49,9.86-22.8,16.23-33.12-5.02-11.22-9.55-22.59-13.79-34.12"/>
      </g>
      <g>
        <text class="st8" transform="translate(251.58 86.23)"><tspan class="st9"><tspan x="0" y="0">sapphire</tspan></tspan><tspan class="st3"><tspan x="0" y="140">robotics</tspan></tspan></text>
        <g class="st0">
          <path class="st5" d="M585.73,20.45c-.03.05-.07.09-.1.14-.87,1.18-1.52,2.49-2.26,3.77-.21.37-.4.6-.61.98-.54.97-1.2,1.93-1.75,2.9-1.49.13-2.99.35-4.47.57-1.37.2-2.72.43-4.1.53-2.03-1.9-3.98-3.68-6.1-5.49.09-3.04-.36-6.06-.03-9.08.49-.41.95-.64,1.52-.94.6-.33,1.2-.67,1.8-1.01,1.4-.8,2.76-1.62,4.13-2.48,2.8.75,5.58,1.5,8.37,2.27.64,1.45,1.28,2.9,1.92,4.34.14.31.27.61.42.92.42.87.93,1.68,1.26,2.59Z"/>
          <path class="st5" d="M573.85,10.4c.35,1.67.64,3.35.87,5.04"/>
          <path class="st5" d="M566.57,14.88c1.31,1.01,2.7,1.91,4.15,2.69"/>
          <path class="st5" d="M570.73,21.95c-1.38.48-2.71,1.11-3.95,1.86"/>
          <path class="st5" d="M573.93,25.07c-.45,1.43-.95,2.84-1.48,4.24"/>
          <path class="st5" d="M578.49,24.18c.66,1.36,1.38,2.69,2.16,3.98"/>
          <path class="st5" d="M585.58,20.41c-1.81-.06-3.41,0-5.2.16"/>
          <path class="st5" d="M582.15,12.69l-3.55,3.91c-1.24-.46-2.5-.8-3.77-1.15-.35-.1-.66.17-.99.34-1.08.57-2.13,1.2-3.14,1.88-.06,1.44.04,2.95.2,4.39.26.29.53.54.79.83.71.8,1.44,1.62,2.38,2.13,1.45-.37,2.96-.66,4.44-.91.43-1.27,1.09-2.51,1.79-3.65-.55-1.24-1.05-2.49-1.52-3.76"/>
        </g>
      </g>
    </g>
  </g>
</svg>