<?xml version="1.0" encoding="UTF-8"?>
<svg id="Layer_2" data-name="Layer 2" xmlns="http://www.w3.org/2000/svg" xmlns:xlink="http://www.w3.org/1999/xlink" viewBox="0 0 671.27 626.39">
  <defs>
    <style>
      .cls-1 {
        filter: url(#outer-glow-2);
      }

      .cls-2 {
        fill: #008dd0;
      }

      .cls-3 {
        letter-spacing: 0em;
      }

      .cls-4 {
        filter: url(#outer-glow-1);
      }

      .cls-5 {
        stroke-width: 1.1px;
      }

      .cls-5, .cls-6 {
        fill: #29cbe2;
        stroke: #008dd0;
        stroke-linecap: round;
        stroke-linejoin: round;
      }

      .cls-7 {
        letter-spacing: 0em;
      }

      .cls-6 {
        stroke-width: 10px;
      }

      .cls-8 {
        letter-spacing: 0em;
      }

      .cls-9 {
        font-family: Montserrat-Bold, Montserrat;
        font-size: 96.12px;
        font-weight: 700;
      }

      .cls-10 {
        fill: #002e42;
      }
    </style>
    <filter id="outer-glow-1" x="-30.86" y="214.99" width="249" height="244" filterUnits="userSpaceOnUse">
      <feOffset dx="0" dy="0"/>
      <feGaussianBlur result="blur" stdDeviation="10"/>
      <feFlood flood-color="#43ceff" flood-opacity="1"/>
      <feComposite in2="blur" operator="in"/>
      <feComposite in="SourceGraphic"/>
    </filter>
    <filter id="outer-glow-2" x="541.83" y="214.69" width="29" height="28" filterUnits="userSpaceOnUse">
      <feOffset dx="0" dy="0"/>
      <feGaussianBlur result="blur-2" stdDeviation="1.1"/>
      <feFlood flood-color="#43ceff" flood-opacity="1"/>
      <feComposite in2="blur-2" operator="in"/>
      <feComposite in="SourceGraphic"/>
    </filter>
  </defs>
  <g class="cls-4">
    <path class="cls-6" d="M182.47,342.75c-.31.48-.6.78-.93,1.23-7.94,10.75-13.85,22.64-20.56,34.19-1.95,3.35-3.64,5.48-5.54,8.86-4.94,8.82-10.93,17.54-15.87,26.36-13.51,1.16-27.19,3.22-40.6,5.2-12.45,1.84-24.69,3.88-37.23,4.84-18.47-17.23-36.17-33.41-55.36-49.83.81-27.63-3.24-55.01-.28-82.49,4.49-3.71,8.66-5.79,13.77-8.58,5.48-2.99,10.93-6.04,16.36-9.14,12.7-7.26,25.09-14.75,37.49-22.51,25.44,6.78,50.66,13.59,76.05,20.57,5.82,13.15,11.65,26.29,17.48,39.44,1.23,2.78,2.47,5.57,3.78,8.32,3.79,7.91,8.41,15.3,11.45,23.53Z"/>
    <path class="cls-6" d="M74.56,251.48c3.14,15.15,5.79,30.4,7.93,45.73"/>
    <path class="cls-6" d="M8.44,292.19c11.89,9.15,24.52,17.33,37.73,24.45"/>
    <path class="cls-6" d="M46.24,356.37c-12.51,4.37-24.57,10.04-35.92,16.89"/>
    <path class="cls-6" d="M75.24,384.7c-4.11,12.97-8.59,25.82-13.43,38.54"/>
    <path class="cls-6" d="M116.71,376.57c5.99,12.34,12.55,24.42,19.63,36.17"/>
    <path class="cls-6" d="M181.05,342.32c-16.39-.57-30.92-.06-47.26,1.43"/>
    <path class="cls-6" d="M149.94,272.26c-10.73,11.83-21.46,23.66-32.2,35.49-11.22-4.18-22.66-7.29-34.22-10.43-3.21-.87-6.04,1.52-8.97,3.08-9.79,5.21-19.32,10.9-28.54,17.06-.53,13.12.36,26.81,1.8,39.86,2.35,2.65,4.84,4.9,7.19,7.55,6.45,7.27,13.08,14.69,21.6,19.36,13.16-3.39,26.89-5.95,40.28-8.26,3.88-11.49,9.86-22.8,16.23-33.12-5.02-11.22-9.55-22.59-13.79-34.12"/>
  </g>
  <g>
    <text class="cls-9" transform="translate(231.72 295.22)"><tspan class="cls-10"><tspan x="0" y="0">sapphi</tspan><tspan class="cls-7" x="338.34" y="0">r</tspan><tspan class="cls-8" x="378.9" y="0">e</tspan></tspan><tspan class="cls-2"><tspan class="cls-3" x="0" y="140">r</tspan><tspan x="40.56" y="140">obotics</tspan></tspan></text>
    <g class="cls-1">
      <path class="cls-5" d="M565.87,229.45c-.03.05-.07.09-.1.14-.87,1.18-1.52,2.49-2.26,3.77-.21.37-.4.6-.61.98-.54.97-1.2,1.93-1.75,2.9-1.49.13-2.99.35-4.47.57-1.37.2-2.72.43-4.1.53-2.03-1.9-3.98-3.68-6.1-5.49.09-3.04-.36-6.06-.03-9.08.49-.41.95-.64,1.52-.94.6-.33,1.2-.67,1.8-1.01,1.4-.8,2.76-1.62,4.13-2.48,2.8.75,5.58,1.5,8.37,2.27.64,1.45,1.28,2.9,1.92,4.34.14.31.27.61.42.92.42.87.93,1.68,1.26,2.59Z"/>
      <path class="cls-5" d="M553.99,219.4c.35,1.67.64,3.35.87,5.04"/>
      <path class="cls-5" d="M546.71,223.88c1.31,1.01,2.7,1.91,4.15,2.69"/>
      <path class="cls-5" d="M550.87,230.95c-1.38.48-2.71,1.11-3.95,1.86"/>
      <path class="cls-5" d="M554.06,234.07c-.45,1.43-.95,2.84-1.48,4.24"/>
      <path class="cls-5" d="M558.63,233.17c.66,1.36,1.38,2.69,2.16,3.98"/>
      <path class="cls-5" d="M565.71,229.4c-1.81-.06-3.41,0-5.2.16"/>
      <path class="cls-5" d="M562.29,221.68l-3.55,3.91c-1.24-.46-2.5-.8-3.77-1.15-.35-.1-.66.17-.99.34-1.08.57-2.13,1.2-3.14,1.88-.06,1.44.04,2.95.2,4.39.26.29.53.54.79.83.71.8,1.44,1.62,2.38,2.13,1.45-.37,2.96-.66,4.44-.91.43-1.27,1.09-2.51,1.79-3.65-.55-1.24-1.05-2.49-1.52-3.76"/>
    </g>
  </g>
</svg>